# AST/ASF file generated using VICON BodyLanguage
# -----------------------------------------------
:version 1.10
:name VICON
:units
  mass 1.0
  length 0.45
  angle deg
:documentation
   .ast/.asf automatically generated from VICON data using
   VICON BodyBuilder and BodyLanguage model FoxedUp or BRILLIANT.MOD
:root
   order TX TY TZ RX RY RZ
   axis XYZ
   position 0 0 0  
   orientation 0 0 0 
:bonedata
  begin
     id 1 
     name lhipjoint
     direction 0.623415 -0.642378 0.445763 
     length 2.49859 
     axis 0 0 0  XYZ
  end
  begin
     id 2 
     name lfemur
     direction 0.34202 -0.939693 0  
     length 6.69689  
     axis 0 0 20  XYZ
    dof rx ry rz
    limits (-160.0 20.0)
           (-70.0 70.0)
           (-60.0 70.0)
  end
  begin
     id 3 
     name ltibia
     direction 0.34202 -0.939693 0   
     length 7.37574   
     axis 0 0 20   XYZ
    dof rx
    limits (-10.0 170.0)
  end
  begin
     id 4 
     name lfoot
     direction 0.084323 -0.231675 0.969132   
     length 2.09111   
     axis -90 7.62852e-016 20   XYZ
    dof rx rz
    limits (-45.0 90.0)
           (-70.0 20.0)
  end
  begin
     id 5 
     name ltoes
     direction 1.5357e-011 -4.21957e-011 1   
     length 1.04989   
     axis -90 7.62852e-016 20   XYZ
    dof rx
    limits (-90.0 20.0)
  end
  begin
     id 6 
     name rhipjoint
     direction -0.605402 -0.653903 0.45376   
     length 2.45455  
     axis 0 0 0  XYZ 
  end
  begin
     id 7 
     name rfemur
     direction -0.34202 -0.939693 0   
     length 6.64523   
     axis 0 0 -20   XYZ
    dof rx ry rz
    limits (-160.0 20.0)
           (-70.0 70.0)
           (-70.0 60.0)
  end
  begin
     id 8 
     name rtibia
     direction -0.34202 -0.939693 0   
     length 7.3339   
     axis 0 0 -20   XYZ
    dof rx
    limits (-10.0 170.0)
 end
 begin
     id 9 
     name rfoot
     direction -0.120854 -0.332043 0.93549   
     length 2.23135  
     axis -90 -7.62852e-016 -20   XYZ
    dof rx rz
    limits (-45.0 90.0)
           (-20.0 70.0)
  end
  begin
     id 10 
     name rtoes
     direction -1.53563e-011 -4.21914e-011 1   
     length 1.10614   
     axis -90 -7.62852e-016 -20   XYZ
    dof rx
    limits (-90.0 20.0)
  end
  begin
     id 11 
     name lowerback
     direction 0.0319682 0.998615 -0.0417941   
     length 2.02718   
     axis 0 0 0   XYZ
    dof rx ry rz
    limits (-20.0 45.0)
           (-30.0 30.0)
           (-30.0 30.0)
  end
  begin
     id 12 
     name upperback
     direction 7.63181e-005 0.995808 0.0914691   
     length 1.97539   
     axis 0 0 0   XYZ
    dof rx ry rz
    limits (-20.0 45.0)
           (-30.0 30.0)
           (-30.0 30.0)
  end
  begin
     id 13 
     name thorax
     direction -0.016423 0.993627 0.111514   
     length 2.00349   
     axis 0 0 0   XYZ
    dof rx ry rz
    limits (-20.0 45.0)
           (-30.0 30.0)
           (-30.0 30.0)
  end
  begin
     id 14 
     name lowerneck
     direction -0.174763 0.981668 -0.0760716   
     length 1.71436   
     axis 0 0 0   XYZ
    dof rx ry rz
    limits (-20.0 45.0)
           (-30.0 30.0)
           (-30.0 30.0)
  end
  begin
     id 15 
     name upperneck
     direction 0.345458 0.934587 -0.0848868   
     length 1.72805   
     axis 0 0 0   XYZ
    dof rx ry rz
    limits (-20.0 45.0)
           (-30.0 30.0)
           (-30.0 30.0)
  end
  begin
     id 16
     name head
     direction 0.13001 0.989848 -0.0574291  
     length 1.767  
     axis 0 0 0   XYZ
    dof rx ry rz
    limits (-20.0 45.0)
           (-30.0 30.0)
           (-30.0 30.0)
  end
  begin
     id 17 
     name lclavicle
     direction 0.952951 0.290122 0.0878234  
     length 3.54654  
     axis 0 0 0   XYZ
    dof ry rz
    limits (-20.0 10.0)
           (0.0 20.0)
  end
  begin
     id 18 
     name lhumerus
     direction 1 -4.48957e-011 -4.56525e-028   
     length 5.19807   
     axis 180 -30 -90   XYZ
    dof rx ry rz
    limits (-60.0 90.0)
           (-90.0 90.0)
           (-90.0 90.0)
  end
  begin
     id 19
     name lradius
     direction 1 -4.48979e-011 -2.0317e-027   
     length 3.0937   
     axis 180 -30 -90   XYZ
    dof rx
    limits (-10.0 170.0)
  end
  begin
     id 20
     name lwrist
     direction 1 -4.48953e-011 -3.05809e-027   
     length 1.54685   
     axis 8.48514e-016 90 90   XYZ
    dof ry
    limits (-180.0 0.0)
 end
  begin
     id 21 
     name lhand
     direction 1 -4.48952e-011 -6.11639e-027   
     length 0.672632   
     axis 3.9013e-015 90 90   XYZ
    dof rx rz
    limits (-90.0 90.0)
           (-45.0 45.0)
  end
  begin
     id 22 
     name lfingers
     direction 1 -4.48925e-011 -1.22426e-026   
     length 0.542293   
     axis 7.80276e-015 90 90   XYZ
    dof rx
    limits (0.0 90.0)
  end
  begin
     id 23
     name lthumb
     direction 0.707107 -6.3486e-011 0.707107   
     length 0.778628   
     axis -90 45 5.37419e-014   XYZ
    dof rx rz
    limits (-45.0 45.0)
           (-45.0 45.0)
  end
  begin
     id 24 
     name rclavicle
     direction -0.960732 0.273675 -0.0457849   
     length 3.52079  
     axis 0 0 0   XYZ 
    dof ry rz
    limits (-10.0 20.0)
           (-20.0 0.0)
  end
  begin
     id 25 
     name rhumerus
     direction -1 -4.48976e-011 -1.63613e-027  
     length 5.45222   
     axis 180 30 90   XYZ
    dof rx ry rz
    limits (-90.0 60.0)
           (-90.0 90.0)
           (-90.0 90.0)
  end
  begin
     id 26 
     name rradius
     direction -1 -4.48957e-011 -7.00033e-028   
     length 3.01284   
     axis 180 30 90   XYZ
    dof rx
    limits (-10.0 170.0)
  end
  begin
     id 27 
     name rwrist
     direction -1 -4.48983e-011 -3.05543e-027   
     length 1.50642   
     axis 8.48514e-016 -90 -90   XYZ
    dof ry
    limits (-180.0 0.0)
  end
  begin
     id 28
     name rhand
     direction -1 -4.48984e-011 -6.11072e-027   
     length 0.622296   
     axis 3.9013e-015 -90 -90   XYZ
    dof rx rz
    limits (-90.0 90.0)
           (-45.0 45.0)
  end
  begin
     id 29
     name rfingers
     direction -1 -4.48865e-011 -1.22637e-026   
     length 0.501711   
     axis 7.80276e-015 -90 -90   XYZ
    dof rx
    limits (0.0 90.0)
  end
  begin
     id 30
     name rthumb
     direction -0.707107 -6.34932e-011 0.707107   
     length 0.72036   
     axis -90 -45 -5.37419e-014   XYZ
    dof rx rz
    limits (-45.0 45.0)
           (-45.0 45.0)
  end
:hierarchy
  begin
    root lhipjoint rhipjoint lowerback
    lhipjoint lfemur
    lfemur ltibia
    ltibia lfoot
    lfoot ltoes
    rhipjoint rfemur
    rfemur rtibia
    rtibia rfoot
    rfoot rtoes
    lowerback upperback
    upperback thorax
    thorax lowerneck lclavicle rclavicle
    lowerneck upperneck
    upperneck head
    lclavicle lhumerus
    lhumerus lradius
    lradius lwrist
    lwrist lhand lthumb
    lhand lfingers
    rclavicle rhumerus
    rhumerus rradius
    rradius rwrist
    rwrist rhand rthumb
    rhand rfingers
  end

#!OML:ASF H:\Not Pregnant\Project 1\Capture day 1\Session 1\non-pregnant.ASF
:FULLY-SPECIFIED
:DEGREES
58
root -3.75624 15.3381 42.2126 112.644 -75.616 -104.394
lowerback -3.33994 2.31106 11.2657
upperback -5.76497 2.83323 2.70955
thorax -3.77792 0.91445 -3.4306
lowerneck 17.8561 -9.70971 -30.2788
upperneck -5.12447 -20.9406 42.4009
head 4.39492 -13.1374 20.8129
rclavicle -2.93207e-014 -1.86858e-014
rhumerus -36.2463 -9.04162 -74.9517
rradius 26.8517
rwrist 28.719
rhand -6.71097 5.77883
rfingers 7.12502
rthumb 19.1488 -23.2985
lclavicle -2.93207e-014 -1.86858e-014
lhumerus -43.3184 -0.640963 85.7098
lradius 33.5507
lwrist 39.331
lhand -1.24542 -10.6464
lfingers 7.12502
lthumb 24.397 17.8204
rfemur -18.5471 -26.4099 42.9102
rtibia 27.2891
rfoot -10.3262 43.288
rtoes 28.9734
lfemur -49.6516 4.97082 -6.46182
ltibia 76.7017
lfoot -2.70241 7.62795
ltoes -21.9359
59
root -3.7577 15.3288 42.1791 113.622 -75.5109 -105.372
lowerback -3.29854 2.3575 11.3494
upperback -5.77302 2.9003 2.65966
thorax -3.79566 0.942296 -3.52918
lowerneck 17.8351 -9.72301 -30.2015
upperneck -4.92314 -21.0114 42.38
head 4.46804 -13.172 20.7701
rclavicle -4.32357e-015 8.34896e-015
rhumerus -36.128 -9.38317 -75.0617
rradius 26.9152
rwrist 28.677
rhand -6.96847 5.61485
rfingers 7.12502
rthumb 18.9011 -23.4868
lclavicle -4.32357e-015 8.34896e-015
lhumerus -43.4804 -0.710234 85.6658
lradius 33.3706
lwrist 39.2215
lhand -1.17367 -10.6028
lfingers 7.12502
lthumb 24.4657 17.8547
rfemur -18.5695 -26.358 43.0507
rtibia 27.4311
rfoot -10.1735 43.514
rtoes 29.4153
lfemur -50.163 5.2837 -7.3778
ltibia 76.9841
lfoot -3.01396 7.87346
ltoes -22.5959
60
root -3.76034 15.319 42.1451 114.526 -75.3982 -106.273
lowerback -3.27373 2.39674 11.4252
upperback -5.78146 2.95518 2.62752
thorax -3.80703 0.964764 -3.6044
lowerneck 17.816 -9.73557 -30.1438
upperneck -4.72177 -21.0821 42.3437
head 4.54055 -13.2043 20.7223
rclavicle 1.1281e-014 3.45885e-014
rhumerus -36.0241 -9.6981 -75.166
rradius 27.0027
rwrist 28.6236
rhand -7.18293 5.49101
rfingers 7.12502
rthumb 18.6949 -23.6306
lclavicle 1.1281e-014 3.45885e-014
lhumerus -43.6422 -0.767851 85.6432
lradius 33.1578
lwrist 39.0506
lhand -1.16201 -10.5546
lfingers 7.12502
lthumb 24.4769 17.9014
rfemur -18.5943 -26.3026 43.2001
rtibia 27.5841
rfoot -10.0188 43.7409
rtoes 29.9479
lfemur -50.618 5.57089 -8.31782
ltibia 77.1796
lfoot -3.32734 8.095
ltoes -23.3445
61
root -3.76412 15.3092 42.1107 115.355 -75.2864 -107.098
lowerback -3.25781 2.43539 11.4982
upperback -5.7929 3.00808 2.59606
thorax -3.81681 0.986257 -3.67712
lowerneck 17.8088 -9.75367 -30.0806
upperneck -4.53044 -21.1576 42.2973
head 4.60738 -13.2386 20.6664
rclavicle 1.68967e-015 -2.78299e-015
rhumerus -35.9505 -10.0211 -75.2704
rradius 27.1203
rwrist 28.557
rhand -7.35561 5.40792
rfingers 7.12502
rthumb 18.5288 -23.7296
lclavicle 1.68967e-015 -2.78299e-015
lhumerus -43.8055 -0.862437 85.6421
lradius 32.9237
lwrist 38.8357
lhand -1.22387 -10.5056
lfingers 7.12502
lthumb 24.4176 17.9584
rfemur -18.616 -26.2508 43.3491
rtibia 27.7367
rfoot -9.92697 43.9262
rtoes 30.4055
lfemur -51.0097 5.82796 -9.28147
ltibia 77.2876
lfoot -3.6423 8.25523
ltoes -24.1617
62
root -3.76877 15.2995 42.0763 116.125 -75.1783 -107.859
lowerback -3.26055 2.46749 11.5528
upperback -5.80142 3.04923 2.58462
thorax -3.81602 1.00348 -3.71819
lowerneck 17.7964 -9.77414 -30.0506
upperneck -4.34178 -21.2384 42.2387
head 4.67921 -13.2728 20.6077
rclavicle 2.48481e-014 -3.1408e-014
rhumerus -35.8853 -10.0687 -75.4752
rradius 27.3031
rwrist 28.203
rhand -7.5172 5.27315
rfingers 7.12502
rthumb 18.3733 -23.8791
lclavicle 2.48481e-014 -3.1408e-014
lhumerus -43.9631 -0.945138 85.6736
lradius 32.6709
lwrist 38.5745
lhand -1.33761 -10.4553
lfingers 7.12502
lthumb 24.3086 18.0233
rfemur -18.6367 -26.2065 43.4968
rtibia 27.8822
rfoot -9.84856 44.1057
rtoes 30.7978
lfemur -51.3384 6.05932 -10.2698
ltibia 77.3105
lfoot -3.94483 8.33533
ltoes -25.0943
63
root -3.77419 15.2903 42.0415 116.852 -75.0806 -108.576
lowerback -3.2845 2.48829 11.5715
upperback -5.80299 3.07188 2.60183
thorax -3.80101 1.01431 -3.709
lowerneck 17.7757 -9.79151 -30.0662
upperneck -4.15944 -21.3153 42.1666
head 4.75312 -13.3017 20.5501
rclavicle -1.44119e-015 9.93923e-015
rhumerus -35.8187 -9.87078 -75.7494
rradius 27.5414
rwrist 27.6253
rhand -7.66303 5.09842
rfingers 7.12502
rthumb 18.233 -24.067
lclavicle -1.44119e-015 9.93923e-015
lhumerus -44.1119 -0.990326 85.7415
lradius 32.4027
lwrist 38.2732
lhand -1.49196 -10.4074
lfingers 7.12502
lthumb 24.1606 18.091
rfemur -18.6513 -26.1659 43.636
rtibia 28.0161
rfoot -9.82189 44.2559
rtoes 31.08
lfemur -51.5974 6.27291 -11.2852
ltibia 77.2506
lfoot -4.23845 8.3196
ltoes -26.0752
64
root -3.78023 15.2817 42.0064 117.547 -74.9936 -109.259
lowerback -3.32093 2.50184 11.5615
upperback -5.7996 3.08289 2.63691
thorax -3.77715 1.02141 -3.66496
lowerneck 17.7509 -9.80849 -30.1099
upperneck -3.98596 -21.39 42.0846
head 4.82664 -13.3273 20.492
rclavicle -7.8023e-015 -1.19271e-014
rhumerus -35.76 -9.48431 -76.081
rradius 27.8293
rwrist 26.8667
rhand -7.791 4.89367
rfingers 7.12502
rthumb 18.1099 -24.2832
lclavicle -7.8023e-015 -1.19271e-014
lhumerus -44.2512 -1.02119 85.8371
lradius 32.1253
lwrist 37.9502
lhand -1.6756 -10.3558
lfingers 7.12502
lthumb 23.9845 18.1659
rfemur -18.6577 -26.1431 43.7658
rtibia 28.1352
rfoot -9.84258 44.3947
rtoes 31.179
lfemur -51.7834 6.47845 -12.3257
ltibia 77.1151
lfoot -4.51145 8.20498
ltoes -27.0681
